<svg version="1.1" xmlns="http://www.w3.org/2000/svg" xmlns:xlink="http://www.w3.org/1999/xlink" width="1560" height="804"><defs/><g><path fill="none" stroke="#888888" paint-order="fill stroke markers" d=" M 20 413.67514202929516 L 21 414.24219979811494 L 22 414.8068290810346 L 23 415.3689178725099 L 24 415.92835467095387 L 25 416.4850285008556 L 26 417.0388289347945 L 27 417.58964611534554 L 28 418.13737077687205 L 29 418.6818942672004 L 30 419.2231085691735 L 31 419.76090632207814 L 32 420.2951808429423 L 33 420.8258261476974 L 34 421.35273697220305 L 35 421.8758087931276 L 36 422.39493784868296 L 37 422.9100211592076 L 38 423.42095654759464 L 39 423.92764265956083 L 40 424.429978983752 L 41 424.9278658716818 L 42 425.42120455749864 L 43 425.9098971775783 L 44 426.3938467899366 L 45 426.8729573934604 L 46 427.3471339469507 L 47 427.8162823879765 L 48 428.2803096515338 L 49 428.73912368850677 L 50 429.19263348392764 L 51 429.6407490750314 L 52 430.08338156910173 L 53 430.5204431611045 L 54 430.9518471511057 L 55 431.3775079614703 L 56 431.79734115383815 L 57 432.21126344587395 L 58 432.61919272778806 L 59 433.02104807862463 L 60 433.41674978231384 L 61 433.80621934348534 L 62 434.18937950303916 L 63 434.5661542534717 L 64 434.9364688539534 L 65 435.30024984515495 L 66 435.6574250638196 L 67 436.0079236570779 L 68 436.35167609650335 L 69 436.688614191904 L 70 437.0186711048499 L 71 437.3417813619317 L 72 437.6578808677484 L 73 437.96690691762245 L 74 438.2687982100379 L 75 438.5634948588013 L 76 438.8509384049208 L 77 439.1310718282032 L 78 439.4038395585646 L 79 439.6691874870543 L 80 439.9270629765879 L 81 440.1774148723892 L 82 440.4201935121379 L 83 440.6553507358208 L 84 440.8828398952854 L 85 441.1026158634937 L 86 441.3146350434739 L 87 441.51885537696865 L 88 441.7152363527783 L 89 441.90373901479694 L 90 442.08432596974046 L 91 442.2569613945638 L 92 442.42161104356757 L 93 442.57824225519107 L 94 442.7268239584916 L 95 442.8673266793078 L 96 442.9997225461067 L 97 443.1239852955123 L 98 443.2400902775156 L 99 443.3480144603645 L 100 443.4477364351324 L 101 443.5392364199653 L 102 443.6224962640057 L 103 443.69749945099346 L 104 443.76423110254194 L 105 443.8226779810894 L 106 443.8728284925251 L 107 443.9146726884892 L 108 443.94820226834594 L 109 443.97341058083066 L 110 443.99029262536885 L 111 443.9988450530684 L 112 443.99906616738366 L 113 443.99095592445224 L 114 443.9745159331034 L 115 443.9497494545393 L 116 443.91666140168775 L 117 443.8752583382277 L 118 443.8255484772874 L 119 443.76754167981477 L 120 443.7012494526218 L 121 443.6266849461015 L 122 443.5438629516194 L 123 443.4527998985795 L 124 443.353513851165 L 125 443.24602450475504 L 126 443.13035318201764 L 127 443.00652282868 L 128 442.8745580089766 L 129 442.73448490077647 L 130 442.58633129039055 L 131 442.43012656705923 L 132 442.2659017171228 L 133 442.0936893178744 L 134 441.91352353109795 L 135 441.7254400962912 L 136 441.5294763235764 L 137 441.3256710862986 L 138 441.1140648133149 L 139 440.89469948097417 L 140 440.66761860479045 L 141 440.43286723081064 L 142 440.19049192667865 L 143 439.9405407723979 L 144 439.6830633507939 L 145 439.41811073767775 L 146 439.14573549171524 L 147 438.865991644 L 148 438.57893468733573 L 149 438.2846215652279 L 150 437.98311066058807 L 151 437.6744617841522 L 152 437.3587361626162 L 153 437.0359964264904 L 154 436.70630659767534 L 155 436.36973207676203 L 156 436.02633963005803 L 157 435.6761973763434 L 158 435.3193747733578 L 159 434.95594260402214 L 160 434.5859729623974 L 161 434.20953923938333 L 162 433.82671610815987 L 163 433.4375795093743 L 164 433.0422066360768 L 165 432.6406759184077 L 166 432.23306700803926 L 167 431.81946076237523 L 168 431.3999392285111 L 169 430.97458562695834 L 170 430.5434843351362 L 171 430.1067208706335 L 172 429.6643818742446 L 173 429.21655509278247 L 174 428.7633293616722 L 175 428.3047945873291 L 176 427.84104172932354 L 177 427.37216278233734 L 178 426.89825075791515 L 179 426.4193996660133 L 180 425.93570449635126 L 181 425.4472611995687 L 182 424.95416666819114 L 183 424.4565187174102 L 184 423.95441606567925 L 185 423.4479583151312 L 186 422.93724593182003 L 187 422.42238022579147 L 188 421.90346333098626 L 189 421.38059818497953 L 190 420.85388850856134 L 191 420.3234387851614 L 192 419.7893542401228 L 193 419.25174081982846 L 194 418.71070517068443 L 195 418.16635461796454 L 196 417.6187971445202 L 197 417.0681413693599 L 198 416.51449652610245 L 199 415.9579724413082 L 200 415.39867951269287 L 201 414.8367286872279 L 202 414.2722314391318 L 203 413.7052997477573 L 204 413.1360460753775 L 205 412.56458334487724 L 206 411.9910249173522 L 207 411.41548456962175 L 208 410.8380764716588 L 209 410.2589151639419 L 210 409.67811553473405 L 211 409.0957927972921 L 212 408.5120624670122 L 213 407.9270403385144 L 214 407.34084246267315 L 215 406.75358512359577 L 216 406.16538481555546 L 217 405.57635821988225 L 218 404.9866221818168 L 219 404.39629368733205 L 220 403.80548983992634 L 221 403.214327837394 L 222 402.6229249485766 L 223 402.0313984901002 L 224 401.43986580310343 L 225 400.8484442299605 L 226 400.257251091004 L 227 399.6664036612519 L 228 399.07601914714394 L 229 398.48621466329126 L 230 397.89710720924415 L 231 397.3088136462834 L 232 396.7214506742378 L 233 396.13513480833507 L 234 395.54998235608826 L 235 394.9661093942241 L 236 394.38363174565654 L 237 393.80266495651136 L 238 393.223324273205 L 239 392.6457246195831 L 240 392.0699805741233 L 241 391.49620634720594 L 242 390.9245157584585 L 243 390.355022214177 L 244 389.7878386848295 L 245 389.22307768264653 L 246 388.66085123930145 L 247 388.1012708836872 L 248 387.5444476197922 L 249 386.9904919046802 L 250 386.43951362657936 L 251 385.89162208308335 L 252 385.3469259594702 L 253 384.8055333071421 L 254 384.26755152219187 L 255 383.7330873240978 L 256 383.2022467345548 L 257 382.67513505644206 L 258 382.1518568529343 L 259 381.63251592676 L 260 381.11721529960926 L 261 380.6060571916982 L 262 380.099143001491 L 263 379.5965732855855 L 264 379.09844773876625 L 265 378.6048651742274 L 266 378.1159235039716 L 267 377.6317197193869 L 268 377.1523498720069 L 269 376.67790905445656 L 270 376.208491381589 L 271 375.74418997181584 L 272 375.2850969286353 L 273 374.8313033223616 L 274 374.38289917205924 L 275 373.9399734276862 L 276 373.50261395244866 L 277 373.0709075053717 L 278 372.64493972408866 L 279 372.22479510785377 L 280 371.8105570007794 L 281 371.4023075753034 L 282 371.0001278158885 L 283 370.6040975029575 L 284 370.21429519706703 L 285 369.8307982233236 L 286 369.4536826560447 L 287 369.0830233036677 L 288 368.71889369391045 L 289 368.36136605918506 L 290 368.01051132226974 L 291 367.6663990822395 L 292 367.3290976006597 L 293 366.9986737880453 L 294 366.6751931905876 L 295 366.35871997715196 L 296 366.04931692654844 L 297 365.7470454150785 L 298 365.4519654043599 L 299 365.1641354294318 L 300 364.8836125871434 L 301 364.61045252482756 L 302 364.34470942926214 L 303 364.08643601592064 L 304 363.83568351851545 L 305 363.5925016788343 L 306 363.35693873687325 L 307 363.12904142126695 L 308 362.9088549400195 L 309 362.6964229715362 L 310 362.49178765595934 L 311 362.29498958680847 L 312 362.10606780292824 L 313 361.9250597807443 L 314 361.7520014268285 L 315 361.58692707077694 L 316 361.4298694583994 L 317 361.2808597452238 L 318 361.1399274903156 L 319 361.00710065041477 L 320 360.8824055743893 L 321 360.76586699800885 L 322 360.65750803903774 L 323 360.5573501926491 L 324 360.46541332716083 L 325 360.3817156800944 L 326 360.306273854557 L 327 360.23910281594806 L 328 360.1802158889905 L 329 360.12962475508755 L 330 360.08733945000535 L 331 360.0533683618824 L 332 360.02771822956555 L 333 360.01039414127297 L 334 360.0013995335852 L 335 360.00073619076295 L 336 360.00840424439366 L 337 360.02440217336505 L 338 360.0487268041671 L 339 360.08137331152113 L 340 360.1223352193378 L 341 360.17160440200087 L 342 360.22917108597966 L 343 360.2950238517677 L 344 360.36914963614794 L 345 360.4515337347841 L 346 360.54215980513766 L 347 360.6410098697097 L 348 360.748064319607 L 349 360.863301918432 L 350 360.9866998064954 L 351 361.1182335053508 L 352 361.25787692265055 L 353 361.40560235732175 L 354 361.5613805050611 L 355 361.7251804641482 L 356 361.89696974157545 L 357 362.07671425949366 L 358 362.26437836197226 L 359 362.459924822072 L 360 362.66331484923006 L 361 362.8745080969546 L 362 363.09346267082867 L 363 363.3201351368204 L 364 363.55448052989925 L 365 363.7964523629557 L 366 364.0460026360229 L 367 364.3030818457983 L 368 364.567638995464 L 369 364.8396216048023 L 370 365.118975720607 L 371 365.4056459273855 L 372 365.6995753583519 L 373 366.0007057067076 L 374 366.3089772372075 L 375 366.6243287980098 L 376 366.94669783280665 L 377 367.2760203932336 L 378 367.6122311515546 L 379 367.9552634136219 L 380 368.30504913210495 L 381 368.6615189199903 L 382 369.02460206434495 L 383 369.39422654034394 L 384 369.770319025558 L 385 370.15280491449874 L 386 370.54160833341746 L 387 370.936652155357 L 388 371.33785801545093 L 389 371.745146326469 L 390 372.1584362946048 L 391 372.5776459355029 L 392 373.00269209052186 L 393 373.43349044323077 L 394 373.8699555361348 L 395 374.3120007876276 L 396 374.7595385091664 L 397 375.21247992266694 L 398 375.670735178114 L 399 376.1342133713855 L 400 376.6028225622847 L 401 377.0764697927786 L 402 377.5550611054379 L 403 378.03850156207574 L 404 378.52669526257995 L 405 379.01954536393714 L 406 379.5169540994436 L 407 380.01882279809877 L 408 380.52505190417935 L 409 381.03554099698744 L 410 381.5501888107714 L 411 382.06889325481393 L 412 382.59155143368366 L 413 383.11805966764666 L 414 383.64831351323335 L 415 384.1822077839569 L 416 384.71963657117925 L 417 385.26049326511986 L 418 385.80467057600436 L 419 386.3520605553473 L 420 386.902554617366 L 421 387.4560435605207 L 422 388.012417589177 L 423 388.57156633538574 L 424 389.13337888077706 L 425 389.6977437785629 L 426 390.2645490756451 L 427 390.83368233482327 L 428 391.4050306570989 L 429 391.9784807040716 L 430 392.5539187204214 L 431 393.1312305564749 L 432 393.71030169084895 L 433 394.2910172531683 L 434 394.87326204685235 L 435 395.4569205719669 L 436 396.04187704813563 L 437 396.62801543750777 L 438 397.2152194677762 L 439 397.8033726552426 L 440 398.3923583279243 L 441 398.98205964869845 L 442 399.5723596384791 L 443 400.1631411994222 L 444 400.7542871381546 L 445 401.34568018902127 L 446 401.9372030373477 L 447 402.5287383427113 L 448 403.12016876221844 L 449 403.7113769737818 L 450 404.30224569939344 L 451 404.89265772838905 L 452 405.48249594069955 L 453 406.0716433300837 L 454 406.659983027339 L 455 407.24739832348473 L 456 407.83377269291384 L 457 408.4189898165078 L 458 409.00293360471113 L 459 409.5854882205599 L 460 410.1665381026605 L 461 410.74596798811325 L 462 411.3236629353775 L 463 411.8995083470722 L 464 412.4733899927089 L 465 413.04519403135157 L 466 413.61480703419915 L 467 414.18211600708634 L 468 414.74700841289877 L 469 415.30937219389614 L 470 415.86909579394205 L 471 416.4260681806327 L 472 416.9801788673227 L 473 417.53131793504224 L 474 418.07937605430186 L 475 418.62424450677986 L 476 419.16581520688896 L 477 419.70398072321734 L 478 420.23863429983953 L 479 420.7696698774939 L 480 421.2969821146214 L 481 421.82046640826223 L 482 422.3400189148061 L 483 422.8555365705913 L 484 423.36691711235005 L 485 423.8740590974939 L 486 424.3768619242371 L 487 424.87522585155324 L 488 425.3690520189603 L 489 425.85824246613237 L 490 426.34270015233125 L 491 426.8223289756571 L 492 427.29703379211173 L 493 427.7667204344726 L 494 428.23129573097253 L 495 428.6906675237825 L 496 429.14474468729264 L 497 429.59343714618916 L 498 430.0366558933223 L 499 430.4743130073629 L 500 430.9063216702434 L 501 431.3325961843796 L 502 431.75305198967095 L 503 432.1676056802743 L 504 432.57617502114954 L 505 432.97867896437225 L 506 433.3750376652114 L 507 433.7651724979679 L 508 434.14900607157193 L 509 434.52646224493463 L 510 434.8974661420526 L 511 435.2619441668607 L 512 435.61982401783155 L 513 435.97103470231787 L 514 436.31550655063535 L 515 436.65317122988307 L 516 436.9839617574985 L 517 437.30781251454505 L 518 437.6246592587289 L 519 437.9344391371426 L 520 438.23709069873325 L 521 438.5325539064927 L 522 438.8207701493668 L 523 439.1016822538825 L 524 439.37523449548877 L 525 439.6413726096114 L 526 439.9000438024168 L 527 440.1511967612852 L 528 440.39478166498907 L 529 440.63075019357683 L 530 440.8590555379574 L 531 441.079652409186 L 532 441.29249704744825 L 533 441.4975472307406 L 534 441.6947622832461 L 535 441.8841030834031 L 536 442.06553207166576 L 537 442.2390132579549 L 538 442.40451222879744 L 539 442.56199615415255 L 540 442.71143379392475 L 541 442.85279550416055 L 542 442.986053242929 L 543 443.1111805758847 L 544 443.2281526815111 L 545 443.33694635604473 L 546 443.43754001807787 L 547 443.5299137128398 L 548 443.6140491161553 L 549 443.6899295380793 L 550 443.7575399262081 L 551 443.816866868665 L 552 443.8678985967608 L 553 443.9106249873287 L 554 443.94503756473193 L 555 443.97112950254564 L 556 443.98889562491047 L 557 443.9983324075597 L 558 443.99943797851813 L 559 443.9922121184737 L 560 443.9766562608206 L 561 443.9527734913753 L 562 443.9205685477641 L 563 443.8800478184837 L 564 443.8312193416335 L 565 443.77409280332137 L 566 443.7086795357421 L 567 443.6349925149294 L 568 443.55304635818203 L 569 443.46285732116394 L 570 443.36444329467975 L 571 443.25782380112577 L 572 443.14301999061723 L 573 443.0200546367928 L 574 442.88895213229705 L 575 442.74973848394154 L 576 442.60244130754603 L 577 442.44708982246004 L 578 442.2837148457669 L 579 442.1123487861705 L 580 441.9330256375662 L 581 441.74578097229755 L 582 441.5506519341 L 583 441.3476772307325 L 584 441.1368971262988 L 585 440.91835343326085 L 586 440.69208950414395 L 587 440.4581502229372 L 588 440.2165819961897 L 589 439.96743274380475 L 590 439.7107518895345 L 591 439.4465903511752 L 592 439.17500053046683 L 593 438.8960363026983 L 594 438.6097530060199 L 595 438.3162074304663 L 596 438.01545780669073 L 597 437.70756379441383 L 598 437.3925864705891 L 599 437.07058831728693 L 600 436.7416332093002 L 601 436.405786401473 L 602 436.06311451575664 L 603 435.7136855279934 L 604 435.35756875443235 L 605 434.99483483797894 L 606 434.6255557341816 L 607 434.2498046969582 L 608 433.8676562640643 L 609 433.47918624230704 L 610 433.08447169250775 L 611 432.68359091421513 L 612 432.27662343017295 L 613 431.8636499705451 L 614 431.44475245690126 L 615 431.0200139859661 L 616 430.5895188131352 L 617 430.1533523357617 L 618 429.7116010762155 L 619 429.2643526647201 L 620 428.81169582196947 L 621 428.3537203415284 L 622 427.89051707202 L 623 427.4221778991044 L 624 426.948795727251 L 625 426.4704644613095 L 626 425.9872789878814 L 627 425.49933515649764 L 628 425.0067297606051 L 629 424.50956051836533 L 630 424.0079260532704 L 631 423.50192587457894 L 632 422.9916603575764 L 633 422.4772307236637 L 634 421.9587390202777 L 635 421.4362881006484 L 636 420.9099816033958 L 637 420.379923931971 L 638 419.84622023394553 L 639 419.30897638015375 L 640 418.7682989436908 L 641 418.2242951787718 L 642 417.67707299945596 L 643 417.1267409582393 L 644 416.5734082245215 L 645 416.0171845629498 L 646 415.45818031164504 L 647 414.89650636031354 L 648 414.33227412825045 L 649 413.765595542237 L 650 413.1965830143381 L 651 412.62534941960246 L 652 412.0520080736722 L 653 411.4766727103042 L 654 410.89945745880857 L 655 410.32047682140893 L 656 409.73984565052876 L 657 409.1576791260078 L 658 408.57409273225414 L 659 407.98920223533514 L 660 407.40312366001353 L 661 406.81597326673096 L 662 406.2278675285459 L 663 405.6389231080284 L 664 405.0492568341181 L 665 404.4589856789488 L 666 403.86822673464445 L 667 403.27709719009204 L 668 402.6857143076942 L 669 402.0941954001085 L 670 401.50265780697566 L 671 400.9112188716432 L 672 400.31999591788775 L 673 399.72910622664165 L 674 399.1386670127281 L 675 398.548795401609 L 676 397.9596084061507 L 677 397.37122290341256 L 678 396.78375561146163 L 679 396.1973230662195 L 680 395.61204159834483 L 681 395.02802731015714 L 682 394.44539605260553 L 683 393.86426340228707 L 684 393.28474463852 L 685 392.70695472047595 L 686 392.13100826437517 L 687 391.5570195207503 L 688 390.98510235178264 L 689 390.4153702087147 L 690 389.8479361093456 L 691 389.2829126156112 L 692 388.7204118112557 L 693 388.1605452795967 L 694 387.6034240813915 L 695 387.04915873280515 L 696 386.49785918348783 L 697 385.9496347947637 L 698 385.4045943179374 L 699 384.86284587272047 L 700 384.32449692578433 L 701 383.78965426944137 L 702 383.25842400046105 L 703 382.7309114990234 L 704 382.2072214078147 L 705 381.68745761126917 L 706 381.1717232149622 L 707 380.66012052515634 L 708 380.1527510285078 L 709 379.64971537193344 L 710 379.15111334264645 L 711 378.65704384836096 L 712 378.16760489767177 L 713 377.68289358061264 L 714 377.2030060493962 L 715 376.7280374993406 L 716 376.2580821499851 L 717 375.7932332264005 L 718 375.33358294069507 L 719 374.8792224737234 L 720 374.4302419569982 L 721 373.9867304548113 L 722 373.5487759465656 L 723 373.11646530932296 L 724 372.68988430057004 L 725 372.2691175412069 L 726 371.85424849876057 L 727 371.4453594708275 L 728 371.0425315687486 L 729 370.6458447015185 L 730 370.25537755993474 L 731 369.87120760098725 L 732 369.4934110324936 L 733 369.1220627979816 L 734 368.75723656182237 L 735 368.39900469461816 L 736 368.0474382588456 L 737 367.7026069947595 L 738 367.36457930655814 L 739 367.0334222488141 L 740 366.7092015131725 L 741 366.39198141531995 L 742 366.08182488222604 L 743 365.7787934396607 L 744 365.48294719998916 L 745 365.19434485024743 L 746 364.91304364050086 L 747 364.63909937248707 L 748 364.3725663885467 L 749 364.1134975608437 L 750 363.86194428087674 L 751 363.61795644928486 L 752 363.38158246594867 L 753 363.1528692203893 L 754 362.9318620824668 L 755 362.7186048933803 L 756 362.513139956971 L 757 362.31550803133047 L 758 362.1257483207156 L 759 361.9438984677715 L 760 361.76999454606414 L 761 361.60407105292484 L 762 361.4461609026068 L 763 361.2962954197559 L 764 361.15450433319677 L 765 361.0208157700358 L 766 360.89525625008116 L 767 360.7778506805822 L 768 360.6686223512888 L 769 360.56759292983105 L 770 360.47478245742127 L 771 360.39020934487843 L 772 360.3138903689758 L 773 360.2458406691133 L 774 360.1860737443138 L 775 360.13460145054574 L 776 360.09143399837114 L 777 360.05657995091997 L 778 360.03004622219174 L 779 360.01183807568384 L 780 360.00195912334726 L 781 360.00041132487047 L 782 360.00719498729023 L 783 360.02230876493115 L 784 360.0457496596722 L 785 360.0775130215417 L 786 360.1175925496396 L 787 360.16598029338763 L 788 360.2226666541062 L 789 360.28764038691855 L 790 360.36088860298145 L 791 360.4423967720419 L 792 360.5321487253196 L 793 360.63012665871423 L 794 360.73631113633735 L 795 360.85068109436787 L 796 360.97321384523036 L 797 361.1038850820958 L 798 361.24266888370323 L 799 361.3895377195016 L 800 361.54446245511133 L 801 361.70741235810334 L 802 361.8783551040958 L 803 362.057256783166 L 804 362.2440819065772 L 805 362.43879341381864 L 806 362.64135267995715 L 807 362.85171952329904 L 808 363.06985221336106 L 809 363.2957074791485 L 810 363.5292405177391 L 811 363.77040500316997 L 812 364.0191530956279 L 813 364.27543545093897 L 814 364.53920123035726 L 815 364.8103981106494 L 816 365.08897229447416 L 817 365.3748685210541 L 818 365.6680300771379 L 819 365.96839880825036 L 820 366.2759151302283 L 821 366.59051804104075 L 822 366.9121451328897 L 823 367.24073260458977 L 824 367.57621527422475 L 825 367.91852659207757 L 826 368.2675986538318 L 827 368.6233622140419 L 828 368.9857466998692 L 829 369.3546802250819 L 830 369.73008960431457 L 831 370.1119003675865 L 832 370.5000367750739 L 833 370.89442183213464 L 834 371.2949773045814 L 835 371.7016237342015 L 836 372.1142804545186 L 837 372.53286560679453 L 838 372.9572961562678 L 839 373.3874879086252 L 840 373.8233555267032 L 841 374.2648125474167 L 842 374.7117713989102 L 843 375.1641434179298 L 844 375.6218388674114 L 845 376.08476695428135 L 846 376.5528358474677 L 847 377.0259526961164 L 848 377.50402364801005 L 849 377.9869538681856 L 850 378.4746475577465 L 851 378.96700797286684 L 852 379.4639374439817 L 853 379.9653373951626 L 854 380.47110836367125 L 855 380.98115001969074 L 856 381.49536118622757 L 857 382.0136398591821 L 858 382.53588322758316 L 859 383.0619876939828 L 860 383.591848895007 L 861 384.1253617220577 L 862 384.6624203421637 L 863 385.20291821897484 L 864 385.7467481338952 L 865 386.29380220735226 L 866 386.843971920197 L 867 387.39714813523085 L 868 387.95322111885537 L 869 388.5120805628396 L 870 389.0736156062027 L 871 389.6377148572045 L 872 390.2042664154435 L 873 390.77315789405327 L 874 391.3442764419975 L 875 391.9175087664559 L 876 392.4927411552984 L 877 393.06985949964184 L 878 393.648749316486 L 879 394.22929577142355 L 880 394.81138370141974 L 881 395.3948976376576 L 882 395.9797218284428 L 883 396.565740262166 L 884 397.15283669031567 L 885 397.7408946505386 L 886 398.32979748974236 L 887 398.9194283872357 L 888 399.5096703779026 L 889 400.10040637540436 L 890 400.69151919540616 L 891 401.2828915788227 L 892 401.8744062150793 L 893 402.46594576538246 L 894 403.05739288599653 L 895 403.6486302515211 L 896 404.23954057816485 L 897 404.8300066470113 L 898 405.41991132727134 L 899 406.0091375995185 L 900 406.5975685789023 L 901 407.1850875383343 L 902 407.7715779316439 L 903 408.3569234166968 L 904 408.9410078784746 L 905 409.52371545210764 L 906 410.1049305458603 L 907 410.6845378640599 L 908 411.2624224299683 L 909 411.8384696085898 L 910 412.4125651294115 L 911 412.98459510907094 L 912 413.554446073947 L 913 414.12200498267003 L 914 414.6871592485457 L 915 415.2497967618888 L 916 415.8098059122622 L 917 416.36707561061775 L 918 416.92149531133225 L 919 417.4729550341368 L 920 418.02134538593356 L 921 418.5665575824957 L 922 419.10848347004764 L 923 419.64701554671893 L 924 420.1820469838695 L 925 420.7134716472814 L 926 421.24118411821263 L 927 421.76507971430914 L 928 422.2850545103704 L 929 422.80100535896526 L 930 423.31282991089324 L 931 423.8204266354877 L 932 424.3236948407563 L 933 424.8225346933552 L 934 425.3168472383932 L 935 425.8065344190616 L 936 426.2914990960853 L 937 426.7716450669925 L 938 427.2468770851984 L 939 427.7171008788995 L 940 428.18222316977386 L 941 428.64215169148514 L 942 429.09679520798505 L 943 429.5460635316124 L 944 429.98986754098314 L 945 430.42811919866966 L 946 430.86073156866445 L 947 431.28761883362625 L 948 431.7086963119029 L 949 432.12388047432995 L 950 432.5330889608006 L 951 432.93624059660306 L 952 433.3332554085235 L 953 433.72405464071005 L 954 434.10856077029587 L 955 434.4866975227772 L 956 434.8583898871441 L 957 435.2235641307601 L 958 435.58214781398897 L 959 435.934069804564 L 960 436.2792602916992 L 961 436.61765079993717 L 962 436.94917420273265 L 963 437.2737647357685 L 964 437.5913580100016 L 965 437.90189102443526 L 966 438.2053021786169 L 967 438.5015312848579 L 968 438.79051958017294 L 969 439.07220973793665 L 970 439.3465458792558 L 971 439.61347358405374 L 972 439.87293990186583 L 973 440.12489336234324 L 974 440.369283985463 L 975 440.60606329144287 L 976 440.83518431035765 L 977 441.05660159145737 L 978 441.2702712121829 L 979 441.47615078687875 L 980 441.67419947520153 L 981 441.86437799022127 L 982 442.0466486062146 L 983 442.2209751661486 L 984 442.38732308885324 L 985 442.5456593758813 L 986 442.69595261805404 L 987 442.83817300169216 L 988 442.9722923145296 L 989 443.0982839513105 L 990 443.21612291906627 L 991 443.32578584207397 L 992 443.427250966493 L 993 443.5204981646806 L 994 443.6055089391846 L 995 443.6822664264125 L 996 443.75075539997715 L 997 443.8109622737167 L 998 443.86287510439007 L 999 443.906483594046 L 1000 443.94177909206576 L 1001 443.9687545968793 L 1002 443.98740475735417 L 1003 443.99772587385695 L 1004 443.99971589898706 L 1005 443.99337443798316 L 1006 443.97870274880125 L 1007 443.9557037418652 L 1008 443.92438197948934 L 1009 443.8847436749735 L 1010 443.8367966913706 L 1011 443.7805505399265 L 1012 443.7160163781937 L 1013 443.6432070078176 L 1014 443.5621368719974 L 1015 443.4728220526207 L 1016 443.37528026707355 L 1017 443.2695308647257 L 1018 443.15559482309243 L 1019 443.03349474367303 L 1020 442.90325484746745 L 1021 442.7649009701717 L 1022 442.61846055705263 L 1023 442.4639626575036 L 1024 442.3014379192822 L 1025 442.1309185824303 L 1026 441.95243847287895 L 1027 441.76603299573804 L 1028 441.57173912827307 L 1029 441.3695954125701 L 1030 441.15964194789007 L 1031 440.9419203827141 L 1032 440.71647390648207 L 1033 440.4833472410247 L 1034 440.2425866316927 L 1035 439.99423983818224 L 1036 439.7383561250615 L 1037 439.47498625199785 L 1038 439.20418246368865 L 1039 438.9259984794974 L 1040 438.64048948279765 L 1041 438.34771211002584 L 1042 438.0477244394469 L 1043 437.74058597963284 L 1044 437.42635765765806 L 1045 437.1051018070135 L 1046 436.77688215524125 L 1047 436.44176381129324 L 1048 436.09981325261504 L 1049 435.75109831195937 L 1050 435.39568816392966 L 1051 435.03365331125815 L 1052 434.6650655708198 L 1053 434.2899980593868 L 1054 433.90852517912356 L 1055 433.5207226028279 L 1056 433.12666725891995 L 1057 432.72643731618155 L 1058 432.3201121682503 L 1059 431.9077724178699 L 1060 431.489499860901 L 1061 431.06537747009554 L 1062 430.63548937863743 L 1063 430.19992086345286 L 1064 429.7587583282939 L 1065 429.3120892865989 L 1066 428.86000234413217 L 1067 428.4025871814073 L 1068 427.93993453589724 L 1069 427.47213618403464 L 1070 426.9992849230064 L 1071 426.52147455234524 L 1072 426.03879985532274 L 1073 425.551356580147 L 1074 425.0592414209696 L 1075 424.5625519987038 L 1076 424.06138684165984 L 1077 423.55584536599946 L 1078 423.0460278560153 L 1079 422.532035444237 L 1080 422.01397009136997 L 1081 421.49193456606866 L 1082 420.9660324245514 L 1083 420.43636799005714 L 1084 419.90304633215123 L 1085 419.36617324588246 L 1086 418.82585523079683 L 1087 418.28219946981113 L 1088 417.7353138079509 L 1089 417.18530673095717 L 1090 416.63228734376656 L 1091 416.0763653488677 L 1092 415.51765102453965 L 1093 414.95625520297614 L 1094 414.3922892482995 L 1095 413.82586503446964 L 1096 413.2570949230915 L 1097 412.6860917411258 L 1098 412.11296875850746 L 1099 411.53783966567676 L 1100 410.9608185510258 L 1101 410.3820198782675 L 1102 409.80155846372867 L 1103 409.21954945357464 L 1104 408.63610830096735 L 1105 408.0513507431628 L 1106 407.46539277855237 L 1107 406.8783506436523 L 1108 406.29034079004566 L 1109 405.7014798612821 L 1110 405.11188466973886 L 1111 404.52167217344913 L 1112 403.9309594529007 L 1113 403.33986368781115 L 1114 402.7485021338824 L 1115 402.15699209954096 L 1116 401.56545092266737 L 1117 400.97399594732 L 1118 400.38274450045753 L 1119 399.7918138686643 L 1120 399.20132127488495 L 1121 398.61138385517035 L 1122 398.0221186354414 L 1123 397.4336425082746 L 1124 396.8460722097143 L 1125 396.25952429611544 L 1126 395.67411512102257 L 1127 395.08996081208824 L 1128 394.50717724803746 L 1129 393.92588003568045 L 1130 393.34618448697967 L 1131 392.7682055961755 L 1132 392.1920580169747 L 1133 391.6178560398069 L 1134 391.0457135691523 L 1135 390.47574410094666 L 1136 389.90806070006727 L 1137 389.34277597790407 L 1138 388.7800020700207 L 1139 388.21985061391103 L 1140 387.6624327268523 L 1141 387.107858983864 L 1142 386.5562393957724 L 1143 386.0076833873878 L 1144 385.4622997757983 L 1145 384.92019674878316 L 1146 384.3814818433519 L 1147 383.8462619244125 L 1148 383.31464316357176 L 1149 382.7867310180751 L 1150 382.262630209886 L 1151 381.74244470491277 L 1152 381.226277692385 L 1153 380.7142315643836 L 1154 380.2064078955292 L 1155 379.7029074228333 L 1156 379.2038300257143 L 1157 378.7092747061854 L 1158 378.2193395692144 L 1159 377.7341218032635 L 1160 377.2537176610099 L 1161 376.7782224402515 L 1162 376.3077304650037 L 1163 375.84233506678754 L 1164 375.3821285661155 L 1165 374.9272022541787 L 1166 374.4776463747366 L 1167 374.0335501062154 L 1168 373.5950015440185 L 1169 373.16208768305 L 1170 372.7348944004584 L 1171 372.3135064386004 L 1172 371.8980073882309 L 1173 371.4884796719213 L 1174 371.0850045277089 L 1175 370.687661992982 L 1176 370.2965308886028 L 1177 369.91168880327155 L 1178 369.5332120781358 L 1179 369.1611757916458 L 1180 368.7956537446617 L 1181 368.4367184458138 L 1182 368.08444109711854 L 1183 367.73889157985445 L 1184 367.40013844069983 L 1185 367.0682488781349 L 1186 366.743288729112 L 1187 366.4253224559951 L 1188 366.1144131337726 L 1189 365.8106224375453 L 1190 365.5140106302915 L 1191 365.22463655091315 L 1192 364.9425576025634 L 1193 364.66782974126 L 1194 364.40050746478516 L 1195 364.1406438018747 L 1196 363.88829030169876 L 1197 363.64349702363626 L 1198 363.4063125273442 L 1199 363.1767838631252 L 1200 362.954956562594 L 1201 362.74087462964536 L 1202 362.53458053172506 L 1203 362.3361151914055 L 1204 362.14551797826795 L 1205 361.962826701093 L 1206 361.78807760036 L 1207 361.6213053410586 L 1208 361.4625430058117 L 1209 361.3118220883131 L 1210 361.1691724870802 L 1211 361.0346224995228 L 1212 360.90819881633 L 1213 360.7899265161753 L 1214 360.67982906074184 L 1215 360.5779282900685 L 1216 360.4842444182171 L 1217 360.3987960292629 L 1218 360.32160007360784 L 1219 360.25267186461826 L 1220 360.1920250755871 L 1221 360.13967173702144 L 1222 360.09562223425615 L 1223 360.0598853053938 L 1224 360.032468039571 L 1225 360.01337587555236 L 1226 360.0026126006517 L 1227 360.0001803499804 L 1228 360.0060796060243 L 1229 360.02030919854747 L 1230 360.0428663048249 L 1231 360.073746450202 L 1232 360.11294350898265 L 1233 360.1604497056438 L 1234 360.21625561637853 L 1235 360.28035017096494 L 1236 360.35272065496247 L 1237 360.4333527122339 L 1238 360.5222303477933 L 1239 360.6193359309787 L 1240 360.72465019895 L 1241 360.8381522605094 L 1242 360.95981960024636 L 1243 361.0896280830035 L 1244 361.22755195866426 L 1245 361.37356386726134 L 1246 361.5276348444038 L 1247 361.6897343270227 L 1248 361.85983015943407 L 1249 362.0378885997175 L 1250 362.2238743264097 L 1251 362.4177504455111 L 1252 362.6194784978043 L 1253 362.8290184664837 L 1254 363.0463287850933 L 1255 363.2713663457722 L 1256 363.5040865078063 L 1257 363.74444310648306 L 1258 363.9923884622499 L 1259 364.24787339017183 L 1260 364.5108472096885 L 1261 364.7812577546679 L 1262 365.05905138375397 L 1263 365.3441729910081 L 1264 365.6365660168403 L 1265 365.9361724592285 L 1266 366.24293288522495 L 1267 366.55678644274593 L 1268 366.87767087264245 L 1269 367.2055225210513 L 1270 367.5402763520213 L 1271 367.88186596041527 L 1272 368.2302235850824 L 1273 368.5852801222999 L 1274 368.9469651394814 L 1275 369.3152068891488 L 1276 369.68993232316416 L 1277 370.07106710722104 L 1278 370.4585356355896 L 1279 370.85226104611496 L 1280 371.25216523546413 L 1281 371.65816887461926 L 1282 372.07019142461445 L 1283 372.4881511525119 L 1284 372.91196514761566 L 1285 373.3415493379185 L 1286 373.77681850677885 L 1287 374.2176863098261 L 1288 374.66406529208797 L 1289 375.11586690533915 L 1290 375.573001525667 L 1291 376.03537847124954 L 1292 376.5029060203448 L 1293 376.97549142948526 L 1294 377.453040951875 L 1295 377.93545985598706 L 1296 378.422652444355 L 1297 378.91452207255577 L 1298 379.4109711683825 L 1299 379.91190125119823 L 1300 380.4172129514729 L 1301 380.9268060304946 L 1302 381.4405794002539 L 1303 381.9584311434971 L 1304 382.48025853394296 L 1305 383.00595805666126 L 1306 383.5354254286065 L 1307 384.0685556193046 L 1308 384.60524287168806 L 1309 385.14538072307494 L 1310 385.6888620262874 L 1311 386.2355789709072 L 1312 386.7854231046615 L 1313 387.33828535493694 L 1314 387.8940560504163 L 1315 388.45262494283344 L 1316 389.01388122884424 L 1317 389.5777135720061 L 1318 390.14401012486326 L 1319 390.71265855113535 L 1320 391.283546048 L 1321 391.85655936847076 L 1322 392.43158484386134 L 1323 393.0085084063338 L 1324 393.5872156115271 L 1325 394.1675916612586 L 1326 394.7495214262967 L 1327 395.3328894691997 L 1328 395.917580067214 L 1329 396.50347723523106 L 1330 397.09046474879517 L 1331 397.6784261671581 L 1332 398.26724485637874 L 1333 398.85680401245844 L 1334 399.4469866845127 L 1335 400.0376757979698 L 1336 400.62875417779526 L 1337 401.2201045717357 L 1338 401.8116096735787 L 1339 402.40315214642175 L 1340 402.99461464594975 L 1341 403.58587984371127 L 1342 404.17683045039416 L 1343 404.76734923909163 L 1344 405.35731906855625 L 1345 405.9466229064381 L 1346 406.5351438525001 L 1347 407.1227651618069 L 1348 407.7093702678849 L 1349 408.294842805844 L 1350 408.8790666354624 L 1351 409.4619258642244 L 1352 410.04330487031 L 1353 410.62308832553157 L 1354 411.20116121821036 L 1355 411.77740887599253 L 1356 412.35171698859625 L 1357 412.92397163048673 L 1358 413.494059283477 L 1359 414.0618668592456 L 1360 414.6272817217697 L 1361 415.1901917096699 L 1362 415.7504851584581 L 1363 416.30805092268986 L 1364 416.8627783980115 L 1365 417.4145575431007 L 1366 417.9632789014958 L 1367 418.50883362330853 L 1368 419.051113486816 L 1369 419.59001091992997 L 1370 420.12541902153424 L 1371 420.65723158269213 L 1372 421.18534310771446 L 1373 421.70964883508645 L 1374 422.23004475825013 L 1375 422.7464276462351 L 1376 423.25869506413727 L 1377 423.76674539343884 L 1378 424.2704778521655 L 1379 424.7697925148797 L 1380 425.26459033250234 L 1381 425.75477315196065 L 1382 426.24024373566 L 1383 426.72090578077155 L 1384 427.1966639383371 L 1385 427.6674238321829 L 1386 428.1330920776405 L 1387 428.5935763000727 L 1388 429.048785153197 L 1389 429.49862833720596 L 1390 429.9430166166808 L 1391 430.3818618382918 L 1392 430.81507694828656 L 1393 431.2425760097581 L 1394 431.664274219692 L 1395 432.0800879257895 L 1396 432.4899346430611 L 1397 432.89373307018894 L 1398 433.2914031056554 L 1399 433.68286586363166 L 1400 434.06804368962736 L 1401 434.44686017589436 L 1402 434.8192401765837 L 1403 435.18510982265263 L 1404 435.5443965365177 L 1405 435.8970290464522 L 1406 436.24293740072426 L 1407 436.58205298147294 L 1408 436.9143085183206 L 1409 437.23963810171665 L 1410 437.55797719601225 L 1411 437.8692626522624 L 1412 438.1734327207527 L 1413 438.4704270632486 L 1414 438.7601867649649 L 1415 439.04265434625216 L 1416 439.31777377399965 L 1417 439.5854904727502 L 1418 439.84575133552636 L 1419 440.09850473436535 L 1420 440.34370053056034 L 1421 440.58129008460685 L 1422 440.81122626585096 L 1423 441.0334634618386 L 1424 441.2479575873642 L 1425 441.4546660932152 L 1426 441.65354797461316 L 1427 441.84456377934737 L 1428 442.0276756156014 L 1429 442.20284715946934 L 1430 442.3700436621618 L 1431 442.52923195689846 L 1432 442.68038046548793 L 1433 442.82345920459153 L 1434 442.95843979167137 L 1435 443.0852954506204 L 1436 443.20400101707395 L 1437 443.3145329434018 L 1438 443.4168693033792 L 1439 443.51098979653625 L 1440 443.5968757521853 L 1441 443.6745101331241 L 1442 443.74387753901595 L 1443 443.80496420944445 L 1444 443.8577580266431 L 1445 443.90224851789935 L 1446 443.93842685763167 L 1447 443.9662858691408 L 1448 443.9858200260329 L 1449 443.9970254533161 L 1450 443.99989992816916 L 1451 443.9944428803823 L 1452 443.98065539247045 L 1453 443.9585401994584 L 1454 443.9281016883383 L 1455 443.8893458971994 L 1456 443.8422805140302 L 1457 443.7869148751937 L 1458 443.72325996357495 L 1459 443.6513284064024 L 1460 443.57113447274344 L 1461 443.48269407067335 L 1462 443.38602474412005 L 1463 443.2811456693835 L 1464 443.168077651332 L 1465 443.04684311927497 L 1466 442.9174661225138 L 1467 442.7799723255709 L 1468 442.63438900309905 L 1469 442.48074503447043 L 1470 442.3190708980484 L 1471 442.1493986651408 L 1472 441.97176199363855 L 1473 441.78619612133883 L 1474 441.59273785895465 L 1475 441.39142558281304 L 1476 441.18229922724214 L 1477 440.96540027664946 L 1478 440.7407717572928 L 1479 440.5084582287448 L 1480 440.2685057750539 L 1481 440.02096199560253 L 1482 439.76587599566494 L 1483 439.5032983766662 L 1484 439.23328122614396 L 1485 438.9558781074164 L 1486 438.67114404895676 L 1487 438.3791355334771 L 1488 438.0799104867238 L 1489 437.7735282659873 L 1490 437.4600496483268 L 1491 437.13953681851433 L 1492 436.812053356699 L 1493 436.47766422579434 L 1494 436.13643575859237 L 1495 435.78843564460414 L 1496 435.433732916633 L 1497 435.0723979370802 L 1498 434.7045023839869 L 1499 434.33011923681596 L 1500 433.9493227619744 L 1501 433.5621884980814 L 1502 433.16879324098414 L 1503 432.7692150285228 L 1504 432.3635331250514 L 1505 431.95182800571297 L 1506 431.53418134047644 L 1507 431.11067597793567 L 1508 430.68139592887457 L 1509 430.2464263496018 L 1510 429.8058535250587 L 1511 429.3597648517025 L 1512 428.90824882017 L 1513 428.451394997723 L 1514 427.98929401048133 L 1515 427.52203752544534 L 1516 427.0497182323116 L 1517 426.5724298250864 L 1518 426.0902669834993 L 1519 425.60332535422174 L 1520 425.11170153189374 L 1521 424.6154930399621 L 1522 424.1147983113346 L 1523 423.60971666885445 L 1524 423.10034830559687 L 1525 422.58679426499447 L 1526 422.0691564207927 L 1527 421.5475374568412 L 1528 421.02204084672513 L 1529 420.492770833238 L 1530 419.95983240770374 L 1531 419.4233312891496 L 1532 418.8833739033341 L 1533 418.3400673616361 L 1534 417.79351943980635 L 1535 417.24383855658846 L 1536 416.69113375221207 L 1537 416.13551466676194 L 1538 415.5770915184287 L 1539 415.0159750816459" stroke-linecap="round" stroke-linejoin="round" stroke-miterlimit="10" stroke-width="2"/></g></svg>